<svg width="50" height="48" viewBox="0 0 50 48" fill="none" xmlns="http://www.w3.org/2000/svg">
<path fill-rule="evenodd" clip-rule="evenodd" d="M25.9101 1.00705C26.2004 0.687829 26.5452 0.434561 26.9248 0.261754C27.3044 0.0889478 27.7113 0 28.1223 0C28.5333 0 28.9403 0.0889478 29.3199 0.261754C29.6995 0.434561 30.0443 0.687829 30.3345 1.00705L49.0819 21.574C49.3729 21.8924 49.6037 22.2707 49.7612 22.6871C49.9188 23.1036 49.9998 23.55 49.9998 24.0009C49.9998 24.4518 49.9188 24.8982 49.7612 25.3147C49.6037 25.7311 49.3729 26.1094 49.0819 26.4278L30.3345 46.9947C29.7478 47.6384 28.9521 48 28.1223 48C27.2926 48 26.4969 47.6384 25.9101 46.9947C25.3234 46.3511 24.9938 45.4781 24.9938 44.5678C24.9938 43.6576 25.3234 42.7846 25.9101 42.1409L42.4516 24.0009L25.9101 5.86085C25.6192 5.54244 25.3883 5.16417 25.2308 4.74772C25.0733 4.33128 24.9922 3.88483 24.9922 3.43395C24.9922 2.98307 25.0733 2.53662 25.2308 2.12018C25.3883 1.70373 25.6192 1.32547 25.9101 1.00705Z" fill="#FFF48C"/>
<path fill-rule="evenodd" clip-rule="evenodd" d="M0 24.0008C0 23.0917 0.329195 22.2198 0.915163 21.577C1.50113 20.9341 2.29588 20.573 3.12456 20.573H43.7439C44.5725 20.573 45.3673 20.9341 45.9533 21.577C46.5392 22.2198 46.8684 23.0917 46.8684 24.0008C46.8684 24.9099 46.5392 25.7818 45.9533 26.4247C45.3673 27.0675 44.5725 27.4286 43.7439 27.4286H3.12456C2.29588 27.4286 1.50113 27.0675 0.915163 26.4247C0.329195 25.7818 0 24.9099 0 24.0008Z" fill="#FFF48C"/>
</svg>
